<svg xmlns:xlink="http://www.w3.org/1999/xlink" xmlns="http://www.w3.org/2000/svg" class="minder" viewBox="0 0 34 42" data-reactid="22" width="34"  height="42" ><defs><symbol id="tf-minder-5a2b0" viewBox="0 0 34 42"><title>minder</title><ellipse fill="#FFF" cx="17.488" cy="16.694" rx="10.456" ry="10.359"></ellipse><path d="M16.969.398C7.624.398.052 7.643.052 16.578c0 8.936 7.572 24.98 16.917 24.98 9.342 0 16.915-16.044 16.915-24.98C33.883 7.643 26.311.398 16.97.398zm0 21.22c-4.577 0-8.288-2.667-8.288-5.96 0-3.288 3.711-5.955 8.288-5.955 4.576 0 8.285 2.667 8.285 5.956 0 3.29-3.709 5.958-8.285 5.958z" fill="#FFD100"></path><ellipse fill="#161616" cx="16.967" cy="15.659" rx="2.87" ry="2.843"></ellipse></symbol></defs><use xlink:href="#tf-minder-5a2b0" data-reactid="23"></use></svg>